<?xml version="1.0" encoding="UTF-8"?>
<svg width="185px" height="110px" viewBox="0 20 185 110" version="1.1" xmlns="http://www.w3.org/2000/svg" xmlns:xlink="http://www.w3.org/1999/xlink">
  <title>编组 26</title>
  <defs>
    <linearGradient x1="50%" y1="100%" x2="50%" y2="0%" id="linearGradient-1">
      <stop stop-color="#FFFFFF" offset="0%"></stop>
      <stop stop-color="#F2F2F2" offset="100%"></stop>
    </linearGradient>
    <linearGradient x1="50%" y1="100%" x2="50%" y2="0%" id="linearGradient-2">
      <stop stop-color="#FFFFFF" offset="0%"></stop>
      <stop stop-color="#F2F2F2" offset="100%"></stop>
    </linearGradient>
    <linearGradient x1="48.0058613%" y1="40.752177%" x2="48.0058613%" y2="6.01456179%" id="linearGradient-3">
      <stop stop-color="#FFFFFF" offset="0%"></stop>
      <stop stop-color="#F0F0F0" offset="100%"></stop>
    </linearGradient>
    <linearGradient x1="56.9800306%" y1="64.6529767%" x2="53.6934566%" y2="13.7331214%" id="linearGradient-4">
      <stop stop-color="#D9D9D9" offset="0%"></stop>
      <stop stop-color="#E6E6E6" offset="100%"></stop>
    </linearGradient>
    <linearGradient x1="64.4731698%" y1="63.5575664%" x2="57.6584226%" y2="16.4443188%" id="linearGradient-5">
      <stop stop-color="#D9D9D9" offset="0%"></stop>
      <stop stop-color="#E6E6E6" offset="100%"></stop>
    </linearGradient>
    <linearGradient x1="57.6584226%" y1="13.7331214%" x2="57.6584226%" y2="91.4702404%" id="linearGradient-6">
      <stop stop-color="#FAFAFA" offset="0%"></stop>
      <stop stop-color="#EBEBEB" offset="100%"></stop>
    </linearGradient>
    <linearGradient x1="55.83351%" y1="64.6529767%" x2="53.0867796%" y2="13.7331214%" id="linearGradient-7">
      <stop stop-color="#D9D9D9" offset="0%"></stop>
      <stop stop-color="#E6E6E6" offset="100%"></stop>
    </linearGradient>
    <linearGradient x1="64.4731698%" y1="64.6529767%" x2="57.6584226%" y2="13.7331214%" id="linearGradient-8">
      <stop stop-color="#D3D3D3" offset="0%"></stop>
      <stop stop-color="#E6E6E6" offset="100%"></stop>
    </linearGradient>
    <linearGradient x1="57.6584226%" y1="13.7331214%" x2="57.6584226%" y2="91.4702404%" id="linearGradient-9">
      <stop stop-color="#FAFAFA" offset="0%"></stop>
      <stop stop-color="#EBEBEB" offset="100%"></stop>
    </linearGradient>
    <linearGradient x1="64.2440534%" y1="64.6529767%" x2="57.5371865%" y2="13.7331214%" id="linearGradient-10">
      <stop stop-color="#D9D9D9" offset="0%"></stop>
      <stop stop-color="#E6E6E6" offset="100%"></stop>
    </linearGradient>
    <linearGradient x1="88.7433141%" y1="86.3668945%" x2="34.9316246%" y2="27.6193043%" id="linearGradient-11">
      <stop stop-color="#DDDCDC" offset="0%"></stop>
      <stop stop-color="#F2F2F2" offset="100%"></stop>
    </linearGradient>
    <linearGradient x1="63.7426101%" y1="64.6529767%" x2="57.2718497%" y2="13.7331214%" id="linearGradient-12">
      <stop stop-color="#D9D9D9" offset="0%"></stop>
      <stop stop-color="#E6E6E6" offset="100%"></stop>
    </linearGradient>
    <linearGradient x1="50%" y1="100%" x2="50%" y2="0%" id="linearGradient-13">
      <stop stop-color="#ECECEC" offset="0%"></stop>
      <stop stop-color="#CDCDCD" offset="100%"></stop>
    </linearGradient>
    <linearGradient x1="50%" y1="100%" x2="50%" y2="0%" id="linearGradient-14">
      <stop stop-color="#ECECEC" offset="0%"></stop>
      <stop stop-color="#CDCDCD" offset="100%"></stop>
    </linearGradient>
  </defs>
  <g id="页面-1" stroke="none" stroke-width="1" fill="none" fill-rule="evenodd">
    <g id="画板" transform="translate(-40.000000, -737.000000)">
      <g id="编组-26" transform="translate(40.000000, 737.000000)">
        <g id="img">
          <rect id="Rectangle-2" x="0" y="0" width="185" height="135"></rect>
          <path d="M147.273429,38.5170751 C147.274641,38.4670733 147.280721,38.418293 147.280721,38.3680174 C147.280721,35.6797344 145.118729,33.5 142.451628,33.5 C140.53,33.5 138.875457,34.6344982 138.098101,36.2722793 C137.761898,36.1017802 137.383427,36.00363 136.981492,36.00363 C135.748044,36.00363 134.726376,36.908065 134.526798,38.0944185 C133.057877,38.6023562 132,40.0036712 132,41.6571016 C132,43.7375064 133.672449,45.4234359 135.735278,45.4256053 L147.280721,45.4256053 L147.280721,45.4246575 C149.165284,45.4148636 150.689866,43.8730421 150.689866,41.9711612 C150.689866,40.0668581 149.161648,38.5228883 147.273429,38.5170751 Z" id="Shape" fill="url(#linearGradient-1)" opacity="0.619810268"></path>
          <path d="M42.2734287,67.0170751 C42.2746406,66.9670733 42.2807207,66.918293 42.2807207,66.8680174 C42.2807207,64.1797344 40.1187291,62 37.4516285,62 C35.5299998,62 33.8754572,63.1344982 33.0981013,64.7722793 C32.7618983,64.6017802 32.383427,64.50363 31.981492,64.50363 C30.7480441,64.50363 29.7263764,65.408065 29.5267983,66.5944185 C28.0578768,67.1023562 27,68.5036712 27,70.1571016 C27,72.2375064 28.6724486,73.9234359 30.735278,73.9256053 L42.2807207,73.9256053 L42.2807207,73.9246575 C44.1652837,73.9148636 45.6898665,72.3730421 45.6898665,70.4711612 C45.6898665,68.5668581 44.1616482,67.0228883 42.2734287,67.0170751 Z" id="Shape备份" fill="url(#linearGradient-1)" opacity="0.619810268"></path>
          <path d="M140.903225,92.2414357 L147.293283,77.5782645 C148.396478,75.0467785 151.34297,73.8889202 153.874456,74.9921155 C154.682049,75.3440562 155.382321,75.903121 155.904382,76.6127135 L159.302217,81.2311003 C160.819804,83.2938265 163.650573,83.8765061 165.859447,82.5808269 L168.606192,80.9696439 C170.98808,79.5724784 174.051608,80.3707535 175.448773,82.7526414 C175.456197,82.7652969 175.463564,82.7779851 175.470876,82.7907055 L180.903225,92.2414357 L180.903225,92.2414357 L140.903225,92.2414357 Z" id="Path-2" fill="url(#linearGradient-2)" opacity="0.619810268"></path>
          <ellipse id="Oval" fill="url(#linearGradient-3)" cx="92.5" cy="132" rx="74.5" ry="52"></ellipse>
          <g id="Group-2" transform="translate(57.000000, 35.000000)">
            <polygon id="Path-8" fill="url(#linearGradient-4)" points="33.1818182 60.2391871 33.1818182 64.6319429 36.5926068 64.6319429 36.5926068 59.7205128"></polygon>
            <path d="M51.2421477,9.96843984 C57.012676,18.1422303 59.8979402,25.4557613 59.8979402,31.9090328 C59.8979402,41.5889399 55.7888017,47.7412637 49.4090809,52.9189766 C40.2082166,60.3862992 32.969325,61.8169506 23.9006766,59.896453 C17.854911,58.6161213 12.2848054,55.3459866 7.19035975,50.0860488 L51.2421477,9.96843984 Z" id="Path-5" fill="url(#linearGradient-5)"></path>
            <path d="M55.3163847,69.6374186 C52.0930339,56.3856401 48.753819,50.0382298 45.2987401,50.5951878 C41.7157479,51.1727654 39.9218461,55.851111 39.9170344,64.6302246 L33.1809963,64.6302246 L33.1809963,60.5396781 C32.4829833,60.6051251 31.8777039,60.6442406 31.3651579,60.6570248 C30.8405262,60.668084 30.4079504,60.6696217 30.0674305,60.661638 L30.0674305,68.9224774 L42.2628994,72.5966197 L55.3163847,69.6374186 Z" id="Path-7" fill="url(#linearGradient-6)"></path>
            <path d="M42.4464846,72.5043614 L55.3264426,69.6743868 C52.3392416,56.6139932 49.2588995,50.6693024 46.0854164,51.8403145 C42.6750916,53.0987208 41.4621143,59.9867365 42.4464846,72.5043614 Z" id="Path-6" fill="url(#linearGradient-7)"></path>
            <circle id="Oval-4" fill="url(#linearGradient-8)" cx="47.3140496" cy="56.8181818" r="1.44628099"></circle>
            <path d="M51.0669981,9.722244 C48.5042613,7.46101693 35.5520982,15.9499426 24.5794272,26.0577745 C13.6067562,36.1656064 5.12404718,46.941455 7.21556009,50.1174192 C9.30707301,53.2933834 22.3812192,44.5520201 33.3643363,34.4345654 C44.3474534,24.3171107 53.629735,11.9834711 51.0669981,9.722244 Z" id="Path-4" fill="url(#linearGradient-9)"></path>
            <polygon id="Combined-Shape" fill="url(#linearGradient-10)" points="34.3902957 33.5464555 21.0925623 22.6308464 19.7545171 23.8114873 29.9857974 37.383864"></polygon>
            <path d="M18.1818182,17.768595 C20.0075529,17.768595 21.4876033,19.2486455 21.4876033,21.0743802 C21.4876033,22.9001149 20.0075529,24.3801653 18.1818182,24.3801653 C16.3560835,24.3801653 14.8760331,22.9001149 14.8760331,21.0743802 C14.8760331,19.2486455 16.3560835,17.768595 18.1818182,17.768595 Z M18.9241738,11.541126 C19.6564087,11.5230777 20.2646335,12.1020403 20.2826818,12.8342752 C20.3007301,13.5665102 19.7217675,14.1747349 18.9895326,14.1927833 C16.4212877,14.2560861 14.3904622,15.0683967 12.8236665,16.633387 C11.2717343,18.183531 10.5155495,20.210292 10.5543195,22.7997889 C10.5652847,23.5321641 9.98046624,24.1347606 9.24809099,24.1457257 C8.51571574,24.1566909 7.91311929,23.5718724 7.90215413,22.8394972 C7.85301618,19.5575165 8.86895353,16.8345551 10.9491737,14.7567318 C13.0145304,12.6937549 15.6973269,11.6206623 18.9241738,11.541126 Z M17.5975873,5.30640498 C17.7876488,6.08222227 17.3127999,6.86522173 16.5369826,7.05528322 C12.4713323,8.05129552 9.46015302,9.60987657 7.47470606,11.701656 C5.48993534,13.7927229 4.14534971,16.7444708 3.46239502,20.5902922 C3.32273365,21.3767466 2.57196846,21.901076 1.78551386,21.7614157 C0.999059645,21.6217532 0.474730297,20.870988 0.614390596,20.0845334 C1.39046552,15.7143441 2.97076211,12.2451436 5.3767273,9.71032477 C7.78201626,7.17621834 11.2822563,5.36450032 15.848709,4.24580029 C16.6245263,4.0557388 17.4075258,4.53058769 17.5975873,5.30640498 Z" id="形状结合" fill="url(#linearGradient-11)"></path>
            <g id="Group" transform="translate(20.247934, 0.000000)" fill="url(#linearGradient-12)">
              <path d="M4.06558679,3.07266325 L5.55592012,0.614587886 C5.83115557,0.160629376 6.4162893,0.0222164706 6.86046192,0.307472789 C7.30109891,0.590458457 7.43539769,1.18313229 7.16230887,1.63355024 L5.68564534,4.06907937 L8.02613744,5.50859775 C8.4695453,5.78131551 8.60459435,6.3578993 8.32630681,6.79507834 C8.04936616,7.23014144 7.46819941,7.36166558 7.02690314,7.09024655 L4.7157497,5.66877291 L3.19027884,8.18480221 C2.91504339,8.63876072 2.32990966,8.77717362 1.88573704,8.4919173 C1.44510005,8.20893164 1.31080128,7.61625781 1.58389009,7.16583986 L3.09569114,4.67235678 L0.651548512,3.1690882 C0.208140649,2.89637044 0.0730915956,2.31978665 0.351379145,1.88260761 C0.628319787,1.44754451 1.20948654,1.31602037 1.65078281,1.5874394 L4.06558679,3.07266325 Z" id="Combined-Shape"></path>
            </g>
          </g>
        </g>
        <g id="编组" transform="translate(46.000000, 94.000000)" fill="url(#linearGradient-13)" fill-rule="nonzero">
          <path d="M3.47598505,0.00418478261 L4.79105299,2.28188349 L6.10612092,4.55971298 L5.4098159,4.55918478 L6.44129586,6.34452276 L6.0198159,6.34418478 L6.93902344,7.93696332 L4.3378159,7.93618478 L4.33805027,10.3753838 L2.59456522,10.3753838 L2.5938159,7.93618478 L0.0128158967,7.93696332 L0.931815897,6.34418478 L0.459149117,6.34452276 L1.4888159,4.55918478 L0.845849185,4.55971298 L2.16091712,2.28188349 L3.47598505,0.00418478261 Z" id="形状结合"></path>
        </g>
        <g id="编组备份" transform="translate(117.000000, 81.000000)" fill="url(#linearGradient-14)" fill-rule="nonzero">
          <path d="M2.97941576,0.00358695652 L5.23381793,3.90832541 L4.63698505,3.90758696 L5.52111073,5.43816236 L5.15898505,5.43758696 L5.94773437,6.80311141 L3.71798505,6.80258696 L3.7183288,8.89318614 L2.22391304,8.89318614 L2.22298505,6.80258696 L0.0109850543,6.80311141 L0.798985054,5.43758696 L0.393556386,5.43816236 L1.27698505,3.90758696 L0.725013587,3.90832541 L2.97941576,0.00358695652 Z" id="形状结合"></path>
        </g>
        <g id="编组备份-2" transform="translate(126.000000, 87.000000)" fill="url(#linearGradient-14)" fill-rule="nonzero">
          <path d="M2.97941576,0.00358695652 L5.23381793,3.90832541 L4.63698505,3.90758696 L5.52111073,5.43816236 L5.15898505,5.43758696 L5.94773437,6.80311141 L3.71798505,6.80258696 L3.7183288,8.89318614 L2.22391304,8.89318614 L2.22298505,6.80258696 L0.0109850543,6.80311141 L0.798985054,5.43758696 L0.393556386,5.43816236 L1.27698505,3.90758696 L0.725013587,3.90832541 L2.97941576,0.00358695652 Z" id="形状结合"></path>
        </g>
      </g>
    </g>
  </g>
</svg>
